<svg width="1080" height="1080" viewBox="0 0 1080 1080" fill="none" xmlns="http://www.w3.org/2000/svg">
<rect width="1080" height="1080" rx="200" fill="#2D6E34"/>
<path d="M185.1 296.9C185.1 302.5 188 307.8 193.8 312.8C199.8 317.8 207.2 322.8 216 327.8C224.8 332.8 234.3 338 244.5 343.4C254.7 348.6 264.2 354.4 273 360.8C281.8 367.2 289.1 374.4 294.9 382.4C300.9 390.4 303.9 399.4 303.9 409.4C303.9 416.8 301.2 424.7 295.8 433.1C290.4 441.3 282.6 448.9 272.4 455.9C262.2 462.9 249.9 468.7 235.5 473.3C221.1 477.9 204.9 480.2 186.9 480.2C168.9 480.2 153.6 478.8 141 476C128.4 473.4 118.1 469.9 110.1 465.5C102.1 460.9 96.2 455.8 92.4 450.2C88.8 444.4 87 438.4 87 432.2C87 426 88.8 419.8 92.4 413.6C96 407.4 100.1 401.7 104.7 396.5C109.9 390.5 115.8 384.8 122.4 379.4L125.1 382.1C124.1 383.1 122.7 384.6 120.9 386.6C119.3 388.6 117.6 391 115.8 393.8C114.2 396.4 112.7 399.4 111.3 402.8C110.1 406 109.5 409.3 109.5 412.7C109.5 418.1 111 423.4 114 428.6C117.2 433.8 122.1 438.5 128.7 442.7C135.3 446.9 143.7 450.3 153.9 452.9C164.3 455.3 176.7 456.5 191.1 456.5C202.1 456.5 212.9 456 223.5 455C234.3 453.8 244 452.2 252.6 450.2C261.2 448 268.1 445.5 273.3 442.7C278.7 439.7 281.4 436.5 281.4 433.1C281.4 421.9 278.4 412.1 272.4 403.7C266.6 395.1 259.3 387.4 250.5 380.6C241.7 373.8 232.2 367.8 222 362.6C211.8 357.2 202.3 352.1 193.5 347.3C184.7 342.3 177.3 337.5 171.3 332.9C165.5 328.1 162.6 323 162.6 317.6C162.6 309.8 165.5 301.4 171.3 292.4C177.3 283.2 184.8 274.6 193.8 266.6C202.8 258.6 212.6 252 223.2 246.8C233.8 241.4 243.9 238.7 253.5 238.7C259.9 238.7 265.5 239.6 270.3 241.4C275.1 243.2 279 245.5 282 248.3C285.2 251.1 287.5 254.4 288.9 258.2C290.5 261.8 291.3 265.4 291.3 269C291.3 273.4 290 277.6 287.4 281.6C284.8 285.6 281.9 289.1 278.7 292.1C275.1 295.7 271 299 266.4 302L263.1 299.9C266.7 296.3 268.7 292.3 269.1 287.9C269.5 283.5 268.4 279.4 265.8 275.6C263.4 271.8 259.5 268.6 254.1 266C248.9 263.4 242.6 262.1 235.2 262.1C227.2 262.1 220.1 263.1 213.9 265.1C207.7 266.9 202.4 269.4 198 272.6C193.8 275.8 190.6 279.5 188.4 283.7C186.2 287.9 185.1 292.3 185.1 296.9ZM209.1 499.4L229.5 519.5L209.1 539.9L189 519.5L209.1 499.4ZM168.6 499.4L189 519.5L168.6 539.9L148.2 519.5L168.6 499.4ZM444.626 421.1C444.626 424.5 442.926 428.6 439.526 433.4C436.326 438 432.126 442.6 426.926 447.2H507.326L492.626 461.9C490.226 464.5 487.326 466.5 483.926 467.9C480.726 469.1 477.326 469.7 473.726 469.7H391.826C386.226 471.7 381.626 472.7 378.026 472.7C360.026 472.7 346.426 469 337.226 461.6C328.026 454.2 323.426 444.4 323.426 432.2C323.426 422.8 325.726 412.9 330.326 402.5C335.126 392.1 341.126 382.3 348.326 373.1C355.526 363.7 363.326 355.4 371.726 348.2C380.326 341 388.426 335.9 396.026 332.9C399.626 340.7 404.126 348.1 409.526 355.1C415.126 362.1 420.526 369.1 425.726 376.1C430.926 382.9 435.326 390 438.926 397.4C442.726 404.6 444.626 412.5 444.626 421.1ZM345.626 416C345.626 428 349.526 437.2 357.326 443.6C365.126 450 376.726 453.2 392.126 453.2C398.526 453.2 403.626 452.6 407.426 451.4C411.426 450 414.526 448.2 416.726 446C418.926 443.8 420.326 441.3 420.926 438.5C421.726 435.5 422.126 432.3 422.126 428.9C422.126 420.5 420.326 412.9 416.726 406.1C413.126 399.1 408.926 392.6 404.126 386.6C399.326 380.6 394.626 374.9 390.026 369.5C385.426 363.9 382.126 358.3 380.126 352.7C375.126 355.1 370.526 358.5 366.326 362.9C362.126 367.3 358.426 372.3 355.226 377.9C352.226 383.3 349.826 389.3 348.026 395.9C346.426 402.5 345.626 409.2 345.626 416ZM592.758 409.4C592.758 414.6 592.958 419.5 593.358 424.1C593.958 428.5 595.258 432.5 597.258 436.1C599.258 439.5 602.258 442.2 606.258 444.2C610.458 446.2 616.158 447.2 623.358 447.2H664.458L649.758 461.9C644.558 467.1 638.258 469.7 630.858 469.7H606.858C599.858 469.7 593.958 468.6 589.158 466.4C584.558 464.2 580.858 461.3 578.058 457.7C575.258 453.9 573.258 449.6 572.058 444.8C570.858 439.8 570.258 434.6 570.258 429.2V386.6C570.258 377 568.958 369.7 566.358 364.7C563.758 359.5 559.258 356.9 552.858 356.9C548.658 356.9 543.858 358.7 538.458 362.3C533.258 365.7 528.358 371 523.758 378.2V447.2C523.758 453.6 521.558 459 517.158 463.4C512.758 467.6 507.458 469.7 501.258 469.7V387.5C501.258 382.5 501.058 378.3 500.658 374.9C500.058 371.5 498.958 368.8 497.358 366.8C495.558 364.6 493.158 363.1 490.158 362.3C486.958 361.5 482.658 361.1 477.258 361.1H468.858L491.358 338.6H500.658C504.458 338.6 507.758 338.9 510.558 339.5C513.358 339.9 515.758 341 517.758 342.8C519.758 344.6 521.258 347.1 522.258 350.3C523.258 353.5 523.758 357.8 523.758 363.2V368.6C531.558 359 539.658 351.1 548.058 344.9C556.458 338.7 564.758 335.6 572.958 335.6C576.558 335.6 579.558 336.7 581.958 338.9C584.558 340.9 586.658 343.6 588.258 347C589.858 350.4 590.958 354.3 591.558 358.7C592.358 363.1 592.758 367.6 592.758 372.2V409.4ZM761.03 447.2H832.73L818.03 461.9C812.83 467.1 806.53 469.7 799.13 469.7H761.03V489.2C761.03 500.2 759.23 510.4 755.63 519.8C752.03 529.2 747.33 537.7 741.53 545.3C735.73 552.9 729.13 559.6 721.73 565.4C714.33 571.2 706.73 576.1 698.93 580.1C691.33 584.1 683.93 587.1 676.73 589.1C669.53 591.1 663.23 592.1 657.83 592.1C649.63 592.1 642.33 590.9 635.93 588.5C629.33 586.3 623.83 583.3 619.43 579.5C614.83 575.7 611.43 571.5 609.23 566.9C606.83 562.3 605.63 557.6 605.63 552.8C605.63 543.6 607.93 535.2 612.53 527.6C617.13 520.2 622.23 513.7 627.83 508.1C634.43 501.7 641.83 495.9 650.03 490.7L652.43 493.1C647.83 496.9 643.73 501 640.13 505.4C636.93 509.2 634.13 513.5 631.73 518.3C629.13 523.3 627.83 528.6 627.83 534.2C627.83 537.4 628.43 541 629.63 545C630.83 549.2 633.23 553.1 636.83 556.7C640.43 560.3 645.53 563.3 652.13 565.7C658.53 568.1 667.03 569.3 677.63 569.3C688.03 569.3 697.03 567.5 704.63 563.9C712.43 560.5 718.83 555.9 723.83 550.1C728.83 544.3 732.53 537.5 734.93 529.7C737.33 521.9 738.53 513.6 738.53 504.8V435.5C734.93 439.7 731.03 444 726.83 448.4C722.83 452.8 718.53 456.8 713.93 460.4C709.53 464 704.73 466.9 699.53 469.1C694.33 471.3 688.93 472.4 683.33 472.4C674.13 472.4 666.63 469.2 660.83 462.8C655.23 456.4 652.43 448.6 652.43 439.4C652.43 428 654.93 417.1 659.93 406.7C665.13 396.1 671.83 386.5 680.03 377.9C688.23 369.3 697.43 361.9 707.63 355.7C717.83 349.5 728.13 344.9 738.53 341.9V338.9C738.53 335.3 739.13 331.9 740.33 328.7C741.73 325.3 743.73 322.4 746.33 320L761.03 305.3V447.2ZM738.53 361.1H732.83C725.83 361.1 718.93 362.3 712.13 364.7C705.33 366.9 699.13 370.4 693.53 375.2C687.93 379.8 683.43 385.8 680.03 393.2C676.63 400.4 674.93 409 674.93 419C674.93 427.8 676.93 435.1 680.93 440.9C684.93 446.5 691.13 449.3 699.53 449.3C706.53 449.3 713.13 447.6 719.33 444.2C725.53 440.6 731.93 435.5 738.53 428.9V361.1ZM941.794 421.1C941.794 424.5 940.094 428.6 936.694 433.4C933.494 438 929.294 442.6 924.094 447.2H1004.49L989.794 461.9C987.394 464.5 984.494 466.5 981.094 467.9C977.894 469.1 974.494 469.7 970.894 469.7H888.994C883.394 471.7 878.794 472.7 875.194 472.7C857.194 472.7 843.594 469 834.394 461.6C825.194 454.2 820.594 444.4 820.594 432.2C820.594 422.8 822.894 412.9 827.494 402.5C832.294 392.1 838.294 382.3 845.494 373.1C852.694 363.7 860.494 355.4 868.894 348.2C877.494 341 885.594 335.9 893.194 332.9C896.794 340.7 901.294 348.1 906.694 355.1C912.294 362.1 917.694 369.1 922.894 376.1C928.094 382.9 932.494 390 936.094 397.4C939.894 404.6 941.794 412.5 941.794 421.1ZM842.794 416C842.794 428 846.694 437.2 854.494 443.6C862.294 450 873.894 453.2 889.294 453.2C895.694 453.2 900.794 452.6 904.594 451.4C908.594 450 911.694 448.2 913.894 446C916.094 443.8 917.494 441.3 918.094 438.5C918.894 435.5 919.294 432.3 919.294 428.9C919.294 420.5 917.494 412.9 913.894 406.1C910.294 399.1 906.094 392.6 901.294 386.6C896.494 380.6 891.794 374.9 887.194 369.5C882.594 363.9 879.294 358.3 877.294 352.7C872.294 355.1 867.694 358.5 863.494 362.9C859.294 367.3 855.594 372.3 852.394 377.9C849.394 383.3 846.994 389.3 845.194 395.9C843.594 402.5 842.794 409.2 842.794 416Z" fill="white"/>
<path d="M637.8 737.2L623.1 751.9C620.7 754.5 617.8 756.5 614.4 757.9C611.2 759.1 607.8 759.7 604.2 759.7H565.2C558 759.7 552 758.6 547.2 756.4C542.6 754.2 538.9 751.2 536.1 747.4C533.3 743.6 531.3 739.3 530.1 734.5C528.9 729.5 528.3 724.3 528.3 718.9V708.1C518.7 726.7 509.2 740 499.8 748C490.4 755.8 480.4 759.7 469.8 759.7C465.2 759.7 460.9 758.9 456.9 757.3C452.9 755.5 449.4 752.7 446.4 748.9C443.4 745.1 441 740.1 439.2 733.9C437.6 727.5 436.8 719.8 436.8 710.8V708.1C427.2 726.7 417.6 740 408 748C398.6 755.8 388.7 759.7 378.3 759.7C373.7 759.7 369.4 758.9 365.4 757.3C361.4 755.5 357.9 752.7 354.9 748.9C351.9 745.1 349.5 740.1 347.7 733.9C346.1 727.5 345.3 719.8 345.3 710.8V560.5C345.3 556.7 344.6 554.2 343.2 553C342 551.8 339.9 551.2 336.9 551.2H299.7C291.3 551.2 284.4 552.7 279 555.7C273.8 558.7 271.2 563.4 271.2 569.8C267.6 566.2 265.4 562.2 264.6 557.8C263.8 553.4 264.1 549.2 265.5 545.2C266.9 541.2 269.3 537.7 272.7 534.7C276.1 531.7 280.3 529.9 285.3 529.3C285.7 529.3 287.5 529.3 290.7 529.3C294.1 529.1 297.6 529 301.2 529C305.4 529 310.1 528.9 315.3 528.7C320.7 528.7 326.5 530.5 332.7 534.1C338.9 537.5 344.6 541.9 349.8 547.3C355 552.7 359.3 558.6 362.7 565C366.1 571.4 367.8 577.4 367.8 583V694.6C367.8 699.8 368 705 368.4 710.2C369 715.2 370.1 719.7 371.7 723.7C373.5 727.7 375.8 731 378.6 733.6C381.6 736 385.5 737.2 390.3 737.2C399.1 737.2 407.2 733.6 414.6 726.4C422 719 429.4 706.8 436.8 689.8V540.1C436.8 532.5 439.4 526.1 444.6 520.9L459.3 506.2V694.6C459.3 699.8 459.5 705 459.9 710.2C460.5 715.2 461.6 719.7 463.2 723.7C465 727.7 467.4 731 470.4 733.6C473.4 736 477.3 737.2 482.1 737.2C490.7 737.2 498.7 733.6 506.1 726.4C513.5 719 520.9 706.8 528.3 689.8V540.1C528.3 532.7 531 526.3 536.4 520.9L550.8 506.2V699.1C550.8 704.3 551 709.2 551.4 713.8C552 718.4 553.3 722.5 555.3 726.1C557.3 729.5 560.4 732.2 564.6 734.2C568.8 736.2 574.5 737.2 581.7 737.2H637.8ZM734.116 699.4C734.116 704.6 734.316 709.5 734.716 714.1C735.316 718.5 736.616 722.5 738.616 726.1C740.616 729.5 743.616 732.2 747.616 734.2C751.816 736.2 757.616 737.2 765.016 737.2H805.816L791.416 751.9C786.216 757.1 779.816 759.7 772.216 759.7H748.216C741.816 759.7 736.416 758.8 732.016 757C727.616 755.2 723.916 752.7 720.916 749.5C718.116 746.3 716.016 742.7 714.616 738.7C713.216 734.5 712.316 730 711.916 725.2C708.316 729.4 704.416 733.7 700.216 738.1C696.216 742.5 691.916 746.5 687.316 750.1C682.716 753.7 677.816 756.7 672.616 759.1C667.616 761.3 662.216 762.4 656.416 762.4C647.216 762.4 639.816 759.2 634.216 752.8C628.616 746.4 625.816 738.6 625.816 729.4C625.816 718 628.316 707.1 633.316 696.7C638.516 686.1 645.116 676.5 653.116 667.9C661.316 659.3 670.516 651.9 680.716 645.7C691.116 639.5 701.416 634.9 711.616 631.9V628.9C711.616 625.3 712.316 621.9 713.716 618.7C715.116 615.3 717.016 612.4 719.416 610L734.116 595.3V699.4ZM711.616 651.1H706.216C699.216 651.1 692.216 652.3 685.216 654.7C678.416 656.9 672.216 660.4 666.616 665.2C661.016 669.8 656.516 675.8 653.116 683.2C649.716 690.4 648.016 699 648.016 709C648.016 717.8 650.016 725.1 654.016 730.9C658.016 736.5 664.216 739.3 672.616 739.3C679.616 739.3 686.216 737.6 692.416 734.2C698.816 730.6 705.216 725.5 711.616 718.9V669.4V651.1ZM816.188 699.4C816.188 704.6 816.388 709.5 816.788 714.1C817.388 718.5 818.688 722.5 820.688 726.1C822.688 729.5 825.788 732.2 829.988 734.2C834.188 736.2 839.888 737.2 847.088 737.2H893.888L879.488 751.9C874.288 757.1 867.888 759.7 860.288 759.7H830.288C823.288 759.7 817.388 758.6 812.588 756.4C807.988 754.2 804.288 751.2 801.488 747.4C798.688 743.6 796.688 739.3 795.488 734.5C794.288 729.5 793.688 724.3 793.688 718.9V579.7C793.688 572.7 794.788 566.3 796.988 560.5C799.388 554.7 802.188 549.6 805.388 545.2C808.788 540.6 812.188 536.8 815.588 533.8C819.188 530.6 822.188 528.2 824.588 526.6L826.688 529C823.088 533.2 820.388 539.3 818.588 547.3C816.988 555.1 816.188 564 816.188 574V699.4ZM967.53 751.9C962.33 757.1 955.93 759.7 948.33 759.7H924.33C917.33 759.7 911.43 758.6 906.63 756.4C902.03 754.2 898.33 751.2 895.53 747.4C892.73 743.6 890.73 739.3 889.53 734.5C888.33 729.5 887.73 724.3 887.73 718.9V677.5C887.73 672.5 887.53 668.3 887.13 664.9C886.53 661.5 885.43 658.8 883.83 656.8C882.03 654.6 879.63 653.1 876.63 652.3C873.43 651.5 869.13 651.1 863.73 651.1H855.33L877.83 628.6H887.13C890.93 628.6 894.23 628.9 897.03 629.5C899.83 629.9 902.23 631 904.23 632.8C906.23 634.6 907.73 637.1 908.73 640.3C909.73 643.5 910.23 647.8 910.23 653.2V699.4C910.23 704.6 910.43 709.5 910.83 714.1C911.43 718.5 912.73 722.5 914.73 726.1C916.73 729.5 919.73 732.2 923.73 734.2C927.93 736.2 933.73 737.2 941.13 737.2H981.93L967.53 751.9ZM899.13 610L878.73 589.9L899.13 569.5L919.23 589.9L899.13 610Z" fill="white"/>
</svg>
