<svg width="331" height="227" viewBox="0 0 331 227" fill="none" xmlns="http://www.w3.org/2000/svg">
<path d="M303.32 165.939C306.535 164.28 310.316 164.067 313.884 164.654C315.8 164.97 317.797 165.542 319.104 166.989C320.411 168.435 320.653 170.96 319.163 172.194C318.196 172.851 317.029 173.147 315.866 173.031C313.077 173.031 309.993 172.509 307.747 174.191C306.469 175.145 305.625 176.738 304.076 177.208C303.315 177.385 302.518 177.309 301.804 176.992C301.09 176.676 300.499 176.136 300.119 175.453C299.396 174.051 299.236 172.426 299.671 170.909C299.855 169.855 300.28 168.859 300.913 167.996C301.546 167.134 302.37 166.43 303.32 165.939Z" fill="#EBEBEB"/>
<path d="M295.978 151.726C297.946 154.53 301.764 153.605 303.533 151.887C305.302 150.169 306.051 147.695 306.734 145.324C308.29 139.913 309.861 134.238 308.701 128.732C308.423 127.062 307.691 125.501 306.587 124.217C306.025 123.588 305.307 123.116 304.506 122.849C303.705 122.583 302.848 122.53 302.021 122.698C300.097 123.211 298.9 125.091 298.034 126.89C295.484 132.186 294.147 137.985 294.121 143.863C294.121 146.601 294.437 149.465 295.978 151.726Z" fill="#EBEBEB"/>
<path d="M290.583 155.749C292.719 153.223 293.123 149.523 292.168 146.352C291.214 143.18 289.078 140.479 286.603 138.276C283.69 135.693 280.305 133.699 276.634 132.403C275.212 131.837 273.684 131.587 272.155 131.669C271.389 131.711 270.646 131.941 269.989 132.338C269.332 132.735 268.783 133.286 268.389 133.945C267.339 135.942 268.345 138.35 269.439 140.346C271.355 143.836 273.542 147.17 275.98 150.316C277.948 152.849 280.194 155.345 283.182 156.49C286.17 157.636 289.283 157.452 290.839 155.396" fill="#EBEBEB"/>
<path d="M295.846 194.064C295.95 193.646 296.009 193.217 296.022 192.787C296.11 191.862 296.228 190.694 296.36 189.307C296.532 187.593 296.794 185.89 297.146 184.204C297.603 182.149 298.224 180.133 299.003 178.177C299.765 176.223 300.801 174.386 302.079 172.722C303.12 171.37 304.449 170.267 305.97 169.492C307 168.98 308.106 168.635 309.244 168.472C309.673 168.457 310.099 168.396 310.514 168.288C310.085 168.241 309.652 168.241 309.222 168.288C308.041 168.379 306.884 168.679 305.809 169.176C304.205 169.932 302.8 171.05 301.705 172.443C300.369 174.126 299.293 176 298.511 178.001C297.722 179.985 297.106 182.034 296.668 184.124C296.339 185.834 296.114 187.562 295.993 189.299C295.883 190.768 295.839 191.972 295.817 192.801C295.783 193.222 295.792 193.645 295.846 194.064Z" fill="#E0E0E0"/>
<path d="M296.089 191.384C296.111 191.189 296.111 190.992 296.089 190.797V189.101C296.089 187.633 296.089 185.511 296.162 182.883C296.294 177.634 296.742 171.988 297.63 164.023C298.46 156.534 299.568 147.82 300.736 142.152C300.985 140.86 301.242 139.7 301.47 138.687C301.697 137.674 301.896 136.793 302.079 136.081L302.476 134.437C302.534 134.246 302.568 134.049 302.578 133.849C302.492 134.028 302.423 134.215 302.373 134.407C302.241 134.833 302.079 135.369 301.881 136.03C301.683 136.69 301.441 137.601 301.184 138.621C300.927 139.642 300.64 140.787 300.369 142.072C298.918 148.772 297.827 155.546 297.102 162.364C296.228 170.351 295.832 177.612 295.795 182.876C295.795 185.511 295.795 187.64 295.89 189.109C295.89 189.799 295.964 190.357 295.993 190.797C295.998 190.996 296.03 191.194 296.089 191.384Z" fill="#E0E0E0"/>
<path d="M296.118 177.37C296.163 176.781 296.163 176.189 296.118 175.6C296.052 174.47 295.891 172.825 295.575 170.814C295.188 168.461 294.668 166.133 294.019 163.839C293.252 161.015 292.27 158.254 291.082 155.58C289.061 150.648 286.158 146.125 282.515 142.233C281.884 141.565 281.21 140.94 280.496 140.361C280.187 140.097 279.916 139.84 279.637 139.627L278.859 139.084C278.393 138.731 277.902 138.412 277.39 138.129C277.302 138.247 279.497 139.539 282.265 142.483C285.785 146.408 288.61 150.904 290.62 155.778C291.782 158.437 292.763 161.172 293.556 163.964C294.225 166.237 294.779 168.543 295.215 170.872C295.582 172.862 295.788 174.484 295.95 175.615C295.96 176.203 296.017 176.79 296.118 177.37Z" fill="#E0E0E0"/>
<path d="M282.573 202.096L283.975 221.338H308.694L310.104 202.096H282.573Z" fill="#E0E0E0"/>
<path d="M313.048 194.512H280.188V202.096H313.048V194.512Z" fill="#E0E0E0"/>
<path d="M280.188 220.596V222.703H281.729H312.505V220.596H280.188Z" fill="#EBEBEB"/>
<path d="M283.241 226.403L281.729 222.703H311.33L309.561 226.403H283.241Z" fill="#E0E0E0"/>
<path d="M309.641 208.38C309.641 208.38 309.605 208.446 309.524 208.563L309.157 209.048C308.804 209.496 308.327 210.12 307.688 210.891L307.622 210.971L307.564 210.891L304.054 205.994H304.26L300.773 210.927L300.663 211.082L300.545 210.935L296.412 206.023H296.647C296.581 206.119 296.5 206.214 296.419 206.31L292.748 210.942L292.631 211.096L292.514 210.935C291.258 209.165 290.091 207.506 289.034 206.009H289.232L284.944 210.898L284.864 210.986L284.805 210.883L283.462 208.63L283.116 208.028C283.075 207.96 283.04 207.889 283.014 207.815C283.014 207.815 283.065 207.873 283.161 208.006L283.535 208.585C283.88 209.121 284.357 209.863 284.952 210.788H284.812L289.041 205.84L289.144 205.715L289.239 205.847L292.756 210.759H292.521L296.192 206.119L296.419 205.832L296.537 205.686L296.654 205.832L300.773 210.759H300.545L304.062 205.854L304.164 205.708L304.267 205.854L307.725 210.795H307.6L309.069 208.997L309.472 208.534C309.522 208.476 309.579 208.424 309.641 208.38Z" fill="#F5F5F5"/>
<path d="M310.442 201.971C310.442 202.052 304.253 202.125 296.61 202.125C288.968 202.125 282.779 202.052 282.779 201.971C282.779 201.89 288.975 201.817 296.61 201.817C304.245 201.817 310.442 201.883 310.442 201.971Z" fill="#F5F5F5"/>
<path d="M311.689 222.909C311.689 222.997 304.965 223.063 296.661 223.063C288.358 223.063 281.626 222.997 281.626 222.909C281.626 222.821 288.358 222.755 296.661 222.755C304.965 222.755 311.689 222.791 311.689 222.909Z" fill="#F5F5F5"/>
<path d="M123.836 95.4313L139.481 92.414L169.493 99.3003L184.704 102.472L184.925 123.256L150.992 129.503L128.094 122.72L119.439 109.982L123.836 95.4313Z" fill="#FFBE9D"/>
<path d="M112.721 97.5016L127.485 94.0218C127.485 94.0218 137.924 126.324 163.686 124.907C184.682 123.769 184.704 102.472 184.704 102.472L200.055 105.181C200.055 105.181 206.494 144.157 199.439 171.496C193.565 194.255 188.353 225.442 188.353 225.442H86.3726L112.721 97.5016Z" fill="#2E6F34"/>
<path d="M262.318 197.368C262.318 197.368 220.259 123.681 212.69 114.225C204.401 103.874 197.787 105.071 197.787 105.071L193.338 154.706L229.098 205.443L237.621 208.519L262.318 197.368Z" fill="#2E6F34"/>
<path d="M114.483 97.0905C114.483 97.0905 90.5793 98.9993 82.0044 138.203C78.1281 155.918 73.1947 176.679 71.8145 190.628C70.7867 200.752 77.0343 211.28 87.1288 212.572L99.8002 214.921C103.148 215.543 106.606 214.857 109.463 213.005C112.321 211.153 114.359 208.276 115.159 204.966L119.439 187.244L108.037 183.412L110.673 130.619L114.483 97.0905Z" fill="#2E6F34"/>
<path d="M202.008 132.579C202.064 132.756 202.101 132.938 202.118 133.122C202.184 133.519 202.258 134.047 202.36 134.701C202.412 135.046 202.463 135.435 202.529 135.846C202.595 136.257 202.617 136.72 202.661 137.212C202.764 138.188 202.882 139.304 202.933 140.545C203.11 143.446 203.13 146.355 202.992 149.259C202.82 152.813 202.467 156.356 201.934 159.875C201.384 163.619 200.694 167.158 199.996 170.358C199.299 173.559 198.601 176.43 198.007 178.838C197.412 181.246 196.891 183.177 196.539 184.513C196.362 185.151 196.223 185.665 196.113 186.047C196.068 186.227 196.012 186.404 195.944 186.576C195.959 186.392 195.991 186.21 196.039 186.032C196.127 185.636 196.252 185.122 196.399 184.476L197.75 178.742C198.315 176.327 198.991 173.457 199.659 170.256C200.327 167.055 201.017 163.524 201.567 159.787C202.118 156.05 202.492 152.445 202.647 149.208C202.801 145.97 202.815 142.997 202.647 140.53C202.647 139.297 202.514 138.181 202.434 137.197C202.397 136.712 202.36 136.257 202.331 135.831C202.302 135.406 202.236 135.039 202.199 134.686C202.125 134.033 202.074 133.504 202.03 133.108C202.011 132.932 202.003 132.756 202.008 132.579Z" fill="#263238"/>
<path d="M120.554 189.138C120.504 189.034 120.462 188.926 120.429 188.815C120.356 188.573 120.253 188.264 120.128 187.868L119.659 186.348C119.526 185.657 119.235 185.006 118.807 184.447C118.178 183.844 117.427 183.383 116.605 183.096C115.637 182.73 114.64 182.45 113.624 182.259C111.202 181.81 108.746 181.564 106.282 181.525H106.084V181.334L108.243 167.26C109.63 158.399 110.893 150.375 111.811 144.502C112.288 141.624 112.67 139.282 112.941 137.623C113.073 136.837 113.183 136.213 113.264 135.751C113.264 135.56 113.33 135.398 113.36 135.266C113.365 135.21 113.38 135.156 113.404 135.105C113.415 135.16 113.415 135.218 113.404 135.274C113.404 135.406 113.404 135.567 113.345 135.765C113.286 136.228 113.198 136.852 113.095 137.645C112.853 139.311 112.508 141.661 112.09 144.546C111.194 150.419 109.975 158.429 108.624 167.304C107.832 172.37 107.09 177.164 106.422 181.371L106.253 181.172C108.746 181.237 111.229 181.514 113.675 182.002C114.706 182.208 115.715 182.505 116.693 182.89C117.549 183.204 118.324 183.706 118.961 184.359C119.224 184.653 119.419 185.002 119.534 185.379L119.805 186.355C119.974 186.95 120.114 187.464 120.231 187.89C120.349 188.316 120.422 188.624 120.481 188.852C120.514 188.945 120.539 189.04 120.554 189.138Z" fill="#263238"/>
<path d="M87.6279 195.129C87.6514 194.794 87.7155 194.464 87.8188 194.145C88.0497 193.26 88.3593 192.398 88.7438 191.568C89.9958 188.795 91.9475 186.396 94.4072 184.605C96.8669 182.815 99.75 181.695 102.773 181.356C103.679 181.245 104.593 181.216 105.504 181.268C105.841 181.272 106.176 181.314 106.503 181.393C105.276 181.4 104.05 181.476 102.832 181.62C99.8775 182.028 97.0694 183.159 94.6576 184.914C92.2458 186.669 90.3051 188.992 89.0081 191.678C88.4868 192.803 88.0261 193.955 87.6279 195.129Z" fill="#263238"/>
<path d="M93.156 175.615C93.3429 175.567 93.5362 175.55 93.7286 175.564C94.2558 175.554 94.7831 175.578 95.3071 175.637C97.0405 175.811 98.7395 176.237 100.351 176.9C101.961 177.566 103.469 178.459 104.829 179.55C105.241 179.876 105.631 180.229 105.996 180.607C106.253 180.879 106.393 181.033 106.371 181.055C106.349 181.077 105.725 180.541 104.667 179.763C101.895 177.732 98.6699 176.406 95.2704 175.901C93.9709 175.71 93.156 175.681 93.156 175.615Z" fill="#263238"/>
<path d="M117.897 124.907C117.849 124.56 117.832 124.208 117.846 123.858C117.846 123.182 117.802 122.213 117.714 121.016C117.493 117.894 116.957 114.802 116.113 111.788C115.257 108.779 114.104 105.862 112.67 103.081C112.112 102.017 111.642 101.165 111.297 100.592C111.104 100.299 110.937 99.9899 110.798 99.6674C111.032 99.9284 111.241 100.211 111.422 100.512C111.811 101.07 112.318 101.899 112.89 102.956C115.946 108.501 117.679 114.677 117.956 121.002C118.007 122.206 118 123.204 117.956 123.858C117.971 124.209 117.951 124.56 117.897 124.907Z" fill="#263238"/>
<g opacity="0.3">
<path d="M200.921 165.462C207.015 155.132 207.147 141.712 201.824 130.957C203.536 142.416 203.168 154.089 200.738 165.418" fill="black"/>
</g>
<g opacity="0.3">
<path d="M146.668 177.142C142.043 178.5 135.656 178.83 131.126 177.142C134.657 182.156 141.463 183.97 147.366 182.34C153.268 180.71 158.715 174.8 159.171 168.685C156.315 172.546 151.301 175.806 146.668 177.142Z" fill="black"/>
</g>
<path d="M163.686 160.462C163.665 160.603 163.628 160.741 163.576 160.873C163.488 161.138 163.385 161.541 163.179 162.026C162.644 163.429 161.978 164.778 161.19 166.056C160.028 167.962 158.624 169.709 157.013 171.254C153.06 175.101 147.958 177.551 142.484 178.228C140.271 178.516 138.03 178.516 135.818 178.228C134.323 178.043 132.849 177.721 131.413 177.267C130.899 177.113 130.524 176.944 130.26 176.848C130.126 176.803 129.996 176.746 129.871 176.679C130.404 176.799 130.931 176.946 131.45 177.12C137.665 178.848 144.294 178.299 150.141 175.571C155.929 172.726 160.502 167.895 163.025 161.96C163.451 161.005 163.649 160.447 163.686 160.462Z" fill="#263238"/>
<path d="M112.119 211.86C112.119 211.86 112.068 211.941 111.935 212.058C111.751 212.242 111.552 212.411 111.341 212.565C110.573 213.137 109.721 213.588 108.815 213.901C107.469 214.348 106.064 214.596 104.645 214.635C102.93 214.689 101.213 214.628 99.5064 214.451C95.8356 214.136 92.576 213.6 90.2194 213.181C89.0374 212.968 88.083 212.785 87.4296 212.645C87.0817 212.598 86.7396 212.515 86.4092 212.396C86.7589 212.401 87.1076 212.435 87.4517 212.498L90.2635 212.91C92.6274 213.269 95.9017 213.754 99.5431 214.07C101.25 214.246 102.966 214.317 104.682 214.282C106.072 214.253 107.45 214.031 108.779 213.622C109.974 213.205 111.1 212.611 112.119 211.86Z" fill="#263238"/>
<path d="M195.034 18.6982L198.051 15.7617C202.067 17.5089 203.924 22.1708 204.607 26.5022C205.29 30.8337 205.187 35.3854 207.03 39.3645C208.439 42.4259 211.001 45.2377 210.7 48.6221C210.414 51.8156 207.522 54.3998 207.507 57.6081C207.507 60.6988 210.076 63.0701 211.574 65.7718C214.606 71.2412 216.574 93.618 214.988 99.6747C201.648 98.5221 178.024 97.0978 164.677 94.0291C168.193 71.0356 183.001 38.5863 195.034 18.6982Z" fill="#263238"/>
<path d="M201.003 39.1956C201.928 23.5656 190.578 9.26444 174.757 7.37768C157.967 5.3808 143.115 17.4061 141.72 33.7629L137.785 99.7922C137.713 101.068 138.07 102.332 138.798 103.382C142.675 109.05 149.693 113.484 155.97 114.358C162.041 115.202 168.201 113.624 173.369 110.746C174.227 110.261 174.942 109.56 175.443 108.712C175.944 107.864 176.214 106.9 176.225 105.915L176.497 91.1366C176.496 91.1238 176.497 91.1108 176.502 91.0988C176.506 91.0867 176.513 91.0757 176.522 91.0666C176.531 91.0575 176.542 91.0505 176.554 91.0461C176.567 91.0417 176.579 91.04 176.592 91.0411C177.975 91.1454 179.365 91.1061 180.74 90.9237C184.646 89.9693 194.608 86.137 197.956 71.5128C199.072 66.6674 200.188 52.9022 201.003 39.1956Z" fill="#FFBE9D"/>
<path d="M179.286 60.7869C179.286 60.6401 180.923 60.4786 183.574 60.3318C184.242 60.3318 184.88 60.2216 185.042 59.7811C185.14 59.1077 185.028 58.4202 184.719 57.8136L183.074 52.6746C180.798 45.3919 179.198 39.4232 179.492 39.3425C179.785 39.2617 181.878 45.0835 184.154 52.3663C184.697 54.1649 185.218 55.8755 185.717 57.5053C185.923 58.2394 186.297 59.1351 185.893 60.0968C185.781 60.321 185.619 60.5164 185.419 60.6678C185.219 60.8193 184.987 60.9228 184.741 60.9705C184.366 61.045 183.984 61.0721 183.603 61.0512C180.931 61.0365 179.293 60.9338 179.286 60.7869Z" fill="#263238"/>
<path d="M196.686 44.7238C196.4 45.0395 194.667 43.5858 192.186 43.5124C189.704 43.439 187.854 44.7385 187.59 44.4007C187.458 44.2466 187.759 43.6666 188.566 43.0646C189.633 42.2978 190.924 41.9054 192.237 41.9487C193.549 41.994 194.807 42.4773 195.812 43.3215C196.583 43.9823 196.869 44.5843 196.686 44.7238Z" fill="#263238"/>
<path d="M171.475 45.3551C171.137 45.6708 169.331 44.0337 166.622 43.7988C163.913 43.5638 161.806 44.8045 161.534 44.4375C161.402 44.2686 161.769 43.7033 162.687 43.1013C163.917 42.3727 165.346 42.0539 166.769 42.191C168.193 42.3172 169.538 42.902 170.601 43.8575C171.401 44.5696 171.636 45.2157 171.475 45.3551Z" fill="#263238"/>
<path d="M176.497 91.0338C176.497 91.0338 166.38 91.1439 154.281 82.8334C154.281 82.8334 157.409 96.1802 176.416 95.7617L176.497 91.0338Z" fill="#EB996E"/>
<path d="M177.781 66.8803C177.321 66.2304 176.704 65.7064 175.988 65.3563C175.273 65.0061 174.481 64.841 173.685 64.8761C173.11 64.8845 172.543 65.0085 172.017 65.2405C171.491 65.4726 171.017 65.8081 170.623 66.2269C170.248 66.6282 170.006 67.1369 169.934 67.6819C169.862 68.2269 169.962 68.7809 170.22 69.2663C170.858 70.2868 172.312 70.6171 173.582 70.3529C174.84 70.0087 176.017 69.42 177.047 68.6203C177.353 68.4246 177.622 68.176 177.84 67.8861C177.943 67.7508 178.004 67.5878 178.015 67.4179C178.025 67.2479 177.985 67.0787 177.899 66.9317" fill="#EB996E"/>
<path d="M171.504 62.0129C171.93 62.0129 171.761 64.8027 174.052 66.9464C176.342 69.0901 179.374 68.9873 179.374 69.3764C179.374 69.56 178.64 69.8757 177.392 69.8169C175.738 69.725 174.166 69.0636 172.943 67.9449C171.779 66.8801 171.078 65.4016 170.99 63.8263C170.954 62.659 171.313 62.0129 171.504 62.0129Z" fill="#263238"/>
<path d="M171.908 35.1211C171.6 35.7965 169.023 35.2753 165.947 35.4001C162.871 35.5249 160.338 36.1342 159.971 35.5102C159.817 35.1945 160.286 34.5779 161.336 33.9759C162.732 33.2487 164.274 32.8447 165.847 32.7939C167.42 32.7431 168.985 33.0467 170.425 33.6822C171.49 34.2108 172.011 34.7981 171.908 35.1211Z" fill="#263238"/>
<path d="M197.222 35.6717C196.693 36.259 194.601 35.6717 192.083 35.6717C189.565 35.6717 187.45 36.0902 186.944 35.4808C186.723 35.1872 187.054 34.5999 187.979 34.0125C189.259 33.3414 190.689 33.0056 192.135 33.0364C193.58 33.0672 194.994 33.4636 196.245 34.1887C197.156 34.7834 197.457 35.3854 197.222 35.6717Z" fill="#263238"/>
<path d="M177.047 4.07403C175.681 1.75412 173.149 0.696943 170.315 0.271138C158.745 -1.48347 145.838 5.48359 139.356 15.2184C132.873 24.9532 132.528 39.482 137.271 50.1711L144.488 45.6635C158.972 39.6875 169.199 25.7314 178.515 11.3127C179.815 9.35255 178.258 6.09293 177.047 4.07403Z" fill="#263238"/>
<path d="M194.872 10.4391C190.034 4.93299 186.518 -0.573109 176.474 3.27382C175.006 6.08561 177.943 9.73432 180.468 11.8633C184.139 14.9908 187.288 17.0978 189.682 19.337C194.512 23.852 200.004 39.0415 200.481 47.33C200.481 47.8513 201.399 40.2161 201.949 40.1354C202.625 40.0326 205.348 36.6996 204.974 32.1478C203.682 16.5913 199.71 15.9379 194.872 10.4391Z" fill="#263238"/>
<path d="M170.344 0.271149C171.099 0.123972 171.879 0.190081 172.598 0.462035C174.376 1.00711 175.96 2.04893 177.165 3.46469C177.509 3.8627 177.814 4.29294 178.075 4.74945C178.303 5.19048 178.48 5.65597 178.604 6.13699C178.866 6.91253 179.065 7.70801 179.198 8.51563C179.396 9.93254 179.059 10.7915 178.985 10.7695C178.912 10.7474 179.022 9.90317 178.714 8.60373C178.51 7.83492 178.265 7.07766 177.98 6.33521C177.849 5.90117 177.677 5.48075 177.466 5.07982C177.217 4.65905 176.932 4.26107 176.614 3.8905C175.477 2.57362 174.039 1.55103 172.422 0.909865C171.174 0.462035 170.33 0.388613 170.344 0.271149Z" fill="#455A64"/>
<path d="M194.395 49.5324C194.396 50.0956 194.181 50.6376 193.795 51.0473C193.408 51.4569 192.88 51.703 192.318 51.7349C192.038 51.761 191.757 51.7312 191.489 51.6471C191.222 51.563 190.974 51.4263 190.76 51.2451C190.546 51.0639 190.37 50.8418 190.243 50.5919C190.116 50.3419 190.04 50.0691 190.02 49.7894C190.005 49.2174 190.214 48.6624 190.602 48.2417C190.99 47.821 191.526 47.5678 192.097 47.5355C192.381 47.5084 192.667 47.5392 192.938 47.626C193.209 47.7129 193.46 47.854 193.675 48.0408C193.89 48.2276 194.065 48.4561 194.188 48.7126C194.312 48.969 194.383 49.2479 194.395 49.5324Z" fill="#263238"/>
<path d="M170.212 49.6499C170.226 50.2219 170.017 50.7769 169.63 51.1976C169.242 51.6182 168.706 51.8715 168.134 51.9037C167.856 51.9309 167.574 51.902 167.307 51.8188C167.039 51.7355 166.791 51.5996 166.577 51.419C166.363 51.2384 166.187 51.0167 166.06 50.7671C165.933 50.5175 165.857 50.245 165.837 49.9656C165.82 49.3924 166.028 48.8355 166.416 48.4132C166.804 47.991 167.342 47.7367 167.914 47.7044C168.194 47.6772 168.476 47.7064 168.744 47.7901C169.011 47.8738 169.26 48.0104 169.474 48.1918C169.688 48.3731 169.864 48.5956 169.991 48.8461C170.118 49.0965 170.193 49.3699 170.212 49.6499Z" fill="#263238"/>
<path d="M103.669 68.0256C105.034 65.7791 106.606 63.6648 109.102 62.7324C111.598 61.8 114.432 61.2641 116.392 59.4434C119.468 56.6169 119.328 51.9184 119.049 47.8219C118.77 43.7253 118.697 39.0121 121.839 36.259C124.467 33.9612 128.645 33.7556 130.92 31.12C132.44 29.3654 132.741 26.9427 133.27 24.7035C134.738 18.7056 138.02 8.22929 155.698 2.20193L140.061 61.6238C141.228 61.9542 144.018 64.6118 144.172 66.4105C144.311 68.0917 143.585 69.7949 143.57 71.4834C143.57 73.5464 145.816 74.7798 147.241 76.3068C149.047 78.2523 149.605 81.0567 149.326 83.6483C148.747 87.1902 147.799 90.6619 146.499 94.0071C131.992 92.5388 110.82 92.0689 99.7633 82.8187C97.759 81.1448 100.63 73.0251 103.669 68.0256Z" fill="#263238"/>
<path d="M144.517 45.6635C144.245 45.5166 133.563 41.2586 132.881 52.5277C132.198 63.7969 143.629 62.1231 143.665 61.8074C143.702 61.4917 144.517 45.6635 144.517 45.6635Z" fill="#FFBE9D"/>
<path d="M140.494 57.3438C140.443 57.2997 140.288 57.4686 139.943 57.5934C139.466 57.768 138.939 57.7496 138.475 57.542C137.315 57.0281 136.427 55.0826 136.493 53.0563C136.53 52.0909 136.781 51.1456 137.227 50.2886C137.355 49.9444 137.564 49.6359 137.836 49.3894C138.108 49.1428 138.436 48.9652 138.791 48.8717C139.02 48.8259 139.257 48.8618 139.463 48.9731C139.668 49.0845 139.828 49.2642 139.914 49.481C140.046 49.8041 139.958 50.0243 140.017 50.0463C140.075 50.0684 140.274 49.8701 140.208 49.4003C140.165 49.1167 140.025 48.857 139.811 48.6661C139.517 48.4125 139.134 48.2857 138.747 48.3137C138.28 48.3758 137.837 48.557 137.46 48.8399C137.083 49.1227 136.785 49.4977 136.596 49.9289C136.059 50.8757 135.762 51.9392 135.729 53.027C135.663 55.2955 136.691 57.4832 138.292 58.0485C138.587 58.1561 138.904 58.1948 139.217 58.1617C139.529 58.1286 139.831 58.0246 140.098 57.8577C140.457 57.608 140.531 57.3658 140.494 57.3438Z" fill="#EB996E"/>
<path d="M184.492 48.6074C184.551 47.7605 184.672 46.919 184.851 46.0893C185.191 44.7009 185.816 43.3986 186.688 42.2656C187.559 41.1326 188.657 40.1938 189.912 39.5091C191.166 38.8244 192.55 38.409 193.974 38.2893C195.399 38.1696 196.832 38.3482 198.184 38.8139C199.114 39.1277 199.991 39.5834 200.782 40.1647C201.628 40.7491 202.372 41.4684 202.985 42.2937C204.3 44.0162 205.029 46.1152 205.063 48.2823C205.097 50.4494 204.436 52.5704 203.176 54.3337C202.594 55.1766 201.88 55.9203 201.061 56.5362C200.29 57.1442 199.428 57.6273 198.507 57.9678C196.803 58.6239 194.955 58.8115 193.155 58.511C191.585 58.2519 190.098 57.6256 188.816 56.683C186.939 55.3175 185.576 53.3599 184.947 51.1255C184.744 50.2993 184.597 49.4605 184.506 48.6147C184.503 48.671 184.503 48.7274 184.506 48.7836C184.506 48.9231 184.506 49.0846 184.506 49.2828C184.513 49.5512 184.54 49.8188 184.587 50.083C184.627 50.4476 184.696 50.8084 184.793 51.1622C185.382 53.4609 186.743 55.4875 188.647 56.9033C190.057 57.9586 191.712 58.6399 193.456 58.8838C195.201 59.1277 196.978 58.9262 198.624 58.2981C200.578 57.5598 202.267 56.2563 203.477 54.554C204.786 52.7272 205.473 50.5281 205.437 48.281C205.402 46.0339 204.645 43.8578 203.279 42.0735C202.642 41.2225 201.874 40.4789 201.003 39.871C200.189 39.2867 199.29 38.8311 198.338 38.5202C196.673 37.945 194.89 37.8002 193.155 38.0993C191.42 38.3984 189.788 39.1316 188.412 40.2308C186.549 41.7081 185.253 43.7824 184.741 46.104C184.657 46.4616 184.598 46.8246 184.565 47.1905C184.529 47.4582 184.512 47.728 184.514 47.9981C184.514 48.1963 184.514 48.3578 184.514 48.4899C184.505 48.5287 184.497 48.5679 184.492 48.6074Z" fill="#455A64"/>
<path d="M156.124 49.0626C156.183 48.2161 156.301 47.3746 156.476 46.5445C157.029 44.2925 158.321 42.2913 160.147 40.8622C161.4 39.8799 162.866 39.2059 164.427 38.8946C166.218 38.5408 168.07 38.67 169.794 39.2691C170.723 39.586 171.599 40.0414 172.393 40.6199C173.237 41.2064 173.98 41.9253 174.595 42.7489C175.909 44.4704 176.637 46.5674 176.673 48.7327C176.708 50.8979 176.05 53.0177 174.793 54.7816C174.208 55.6242 173.492 56.3678 172.672 56.984C171.9 57.5923 171.038 58.0754 170.117 58.4156C168.414 59.0718 166.565 59.2594 164.765 58.9589C163.197 58.7 161.713 58.0736 160.433 57.1309C158.555 55.7653 157.19 53.808 156.557 51.5734C156.355 50.7475 156.21 49.9085 156.124 49.0626C156.116 49.1186 156.116 49.1754 156.124 49.2314C156.124 49.3636 156.124 49.5324 156.124 49.7307C156.124 49.9991 156.148 50.267 156.197 50.5309C156.237 50.8961 156.308 51.2572 156.41 51.6101C156.993 53.9115 158.355 55.94 160.265 57.3511C161.563 58.3264 163.072 58.985 164.669 59.2746C166.526 59.5945 168.435 59.412 170.198 58.746C172.154 58.0132 173.845 56.7086 175.05 55.0018C176.359 53.1751 177.047 50.976 177.011 48.7289C176.975 46.4818 176.219 44.3056 174.852 42.5213C173.589 40.8571 171.859 39.6072 169.882 38.9314C168.099 38.3219 166.184 38.2028 164.339 38.5863C162.374 38.9903 160.567 39.9524 159.134 41.3574C157.702 42.7624 156.705 44.5506 156.264 46.5078C156.172 46.8639 156.113 47.2276 156.087 47.5943C156.044 47.8611 156.027 48.1316 156.036 48.4019V48.8937C156.053 48.9558 156.083 49.0134 156.124 49.0626Z" fill="#455A64"/>
<path d="M176.386 48.2917C176.445 48.3284 176.739 47.8512 177.422 47.3006C178.297 46.5748 179.393 46.1684 180.53 46.1484C181.667 46.1284 182.776 46.4959 183.677 47.1905C184.411 47.7118 184.69 48.1816 184.741 48.1376C184.559 47.6738 184.248 47.2715 183.845 46.9776C182.926 46.1727 181.739 45.7395 180.518 45.7625C179.296 45.7856 178.127 46.2634 177.238 47.1024C176.848 47.4111 176.553 47.8232 176.386 48.2917Z" fill="#455A64"/>
<path d="M141.933 44.944C142.608 45.1583 143.305 45.301 144.01 45.3698C145.31 45.5754 147.108 45.7663 149.091 45.9425L154.178 46.3976C154.875 46.505 155.58 46.559 156.285 46.5591C155.61 46.343 154.913 46.1979 154.208 46.126C152.915 45.9278 151.117 45.7369 149.127 45.5607L144.047 45.1055C143.348 44.9936 142.641 44.9396 141.933 44.944Z" fill="#455A64"/>
<path d="M200.877 54.9578C201.794 53.8991 202.537 52.7024 203.08 51.4118C203.506 50.0757 203.722 48.6812 203.719 47.2786C203.882 47.6736 203.957 48.0996 203.939 48.5267C203.965 49.555 203.796 50.5789 203.44 51.544C203.084 52.5092 202.546 53.3967 201.854 54.1576C201.318 54.7302 200.907 54.9945 200.877 54.9578Z" fill="white"/>
<path d="M202.654 43.3583C202.713 43.2702 203.132 43.4831 203.389 43.9823C203.645 44.4815 203.535 44.9367 203.433 44.9293C203.33 44.922 203.242 44.5476 203.043 44.1438C202.845 43.74 202.588 43.439 202.654 43.3583Z" fill="white"/>
<path d="M174.962 52.7333C174.904 52.7333 175.109 52.146 175.278 51.199C175.711 48.7148 175.234 46.1579 173.935 43.997C173.443 43.1747 173.046 42.7196 173.09 42.6755C173.523 42.9911 173.887 43.3906 174.162 43.8501C174.899 44.9176 175.406 46.1269 175.65 47.401C175.894 48.6751 175.87 49.9861 175.579 51.2503C175.476 51.7812 175.266 52.2857 174.962 52.7333Z" fill="white"/>
<path d="M135.935 61.6532C135.935 61.6532 135.781 61.8735 135.56 62.2772C135.244 62.8508 135.078 63.4945 135.076 64.1493C135.064 64.624 135.151 65.096 135.33 65.5357C135.509 65.9754 135.778 66.3732 136.118 66.7041C136.529 67.1123 137.03 67.4176 137.582 67.5949C138.133 67.7723 138.718 67.8167 139.29 67.7246C139.858 67.6077 140.391 67.3605 140.847 67.0026C141.303 66.6446 141.67 66.1855 141.918 65.6617C142.119 65.2313 142.229 64.7645 142.243 64.2898C142.257 63.8151 142.174 63.3426 141.999 62.9013C141.767 62.2904 141.389 61.7459 140.898 61.3155C140.545 61.0145 140.31 60.8897 140.325 60.8603C140.568 60.9225 140.793 61.0379 140.986 61.198C141.546 61.6053 141.983 62.1591 142.248 62.7985C142.461 63.2717 142.571 63.7846 142.571 64.3035C142.571 64.8223 142.461 65.3353 142.248 65.8085C141.996 66.3985 141.601 66.9165 141.098 67.3161C140.596 67.7157 140.002 67.9843 139.371 68.0978C138.739 68.2113 138.089 68.1662 137.479 67.9665C136.869 67.7669 136.318 67.4189 135.876 66.9537C135.51 66.5868 135.226 66.1465 135.043 65.6618C134.859 65.1772 134.78 64.6592 134.812 64.142C134.837 63.4507 135.053 62.78 135.436 62.2038C135.693 61.8 135.935 61.6385 135.935 61.6532Z" fill="#E0E0E0"/>
<path d="M197.948 70.3162C198.57 70.5647 199.254 70.6059 199.901 70.4336C200.593 70.2399 201.216 69.8558 201.7 69.3251C202.296 68.6813 202.698 67.8822 202.86 67.0198C203.028 66.157 202.92 65.2631 202.551 64.465C202.249 63.8107 201.799 63.2353 201.237 62.7838C200.695 62.3872 200.102 62.0638 199.475 61.8221C199.662 61.8054 199.85 61.8304 200.026 61.8955C200.522 62.0333 200.99 62.2596 201.406 62.5636C202.03 63.0218 202.533 63.6237 202.874 64.3182C203.294 65.1765 203.422 66.1479 203.241 67.0859C203.062 68.0234 202.613 68.8883 201.949 69.5747C201.411 70.1362 200.719 70.5268 199.96 70.6979C199.451 70.818 198.919 70.79 198.425 70.6172C198.08 70.4777 197.934 70.3308 197.948 70.3162Z" fill="#E0E0E0"/>
<path d="M157.225 216.088L168.112 219.311C168.112 219.311 174.118 221.888 177.04 222.556C180.666 223.386 183.14 222.263 183.273 220.244C183.405 218.225 180.586 217.968 180.586 217.968C178.189 217.055 175.859 215.978 173.611 214.745C171.979 213.611 170.644 212.1 169.72 210.34L173.611 210.876C173.611 210.876 181.797 216.749 184.88 218.526C187.964 220.302 188.639 217.182 188.903 216.243C189.168 215.303 179.785 205.781 179.785 205.781C179.785 205.781 188.771 211.551 190.379 212.99C191.987 214.429 194.41 214.899 194.945 213.967C195.481 213.034 196.957 213.027 194.945 209.048C192.934 205.069 176.834 194.365 176.834 194.365L181.239 193.425L186.07 195.576C186.406 197.234 187.092 198.801 188.081 200.172C189.821 202.756 192.912 200.172 192.912 200.172L190.996 190.261L181.452 184.285C181.452 184.285 171.526 185.497 170.051 186.165C168.575 186.833 166.96 189.644 166.96 189.644L164.28 190.731C160.118 191.935 160.257 196.098 158.914 196.23C157.57 196.362 118.411 188.727 118.411 188.727L114.865 187.802C108.991 192.258 106.65 199.622 105.614 206.155C105.614 206.155 104.535 209.356 105.614 211.118L157.225 216.088Z" fill="#FFBE9D"/>
<path d="M150.038 209.121C149.992 208.912 149.979 208.696 150.001 208.483C149.999 208.236 150.021 207.99 150.067 207.749C150.102 207.416 150.165 207.086 150.258 206.765C150.81 204.911 151.742 203.193 152.997 201.721C154.215 200.242 155.572 198.882 157.049 197.661C157.635 197.127 158.272 196.653 158.951 196.244C158.407 196.807 157.831 197.336 157.225 197.83C155.813 199.096 154.498 200.465 153.29 201.927C152.071 203.367 151.132 205.023 150.523 206.809C150.089 208.211 150.119 209.129 150.038 209.121Z" fill="#EB996E"/>
<path d="M166.997 189.644C166.997 189.644 166.674 189.813 166.174 190.217C165.479 190.805 164.877 191.496 164.39 192.265C164.039 192.786 163.739 193.339 163.495 193.917C163.269 194.597 163.126 195.302 163.069 196.017C162.968 196.848 162.671 197.643 162.203 198.337C161.671 199.008 161.234 199.749 160.903 200.539C160.4 201.874 160.4 203.345 160.903 204.68L160.955 204.819L160.83 204.9C159.128 205.999 157.895 207.692 157.372 209.65C157.192 210.422 157.081 211.208 157.042 211.999C156.982 211.794 156.957 211.581 156.968 211.368C156.96 210.773 157.024 210.179 157.159 209.599C157.627 207.542 158.875 205.747 160.639 204.592L160.565 204.812C160.034 203.392 160.034 201.827 160.565 200.407C160.904 199.594 161.359 198.835 161.916 198.153C162.363 197.496 162.645 196.74 162.739 195.951C162.827 194.552 163.339 193.212 164.207 192.111C164.725 191.331 165.376 190.648 166.13 190.092C166.333 189.939 166.555 189.814 166.791 189.718C166.856 189.685 166.925 189.66 166.997 189.644Z" fill="#EB996E"/>
<path d="M176.423 194.035C175.484 194.156 174.529 194.055 173.636 193.739C172.743 193.422 171.937 192.9 171.284 192.214C171.358 192.126 172.341 192.882 173.758 193.374C175.175 193.866 176.423 193.925 176.423 194.035Z" fill="#EB996E"/>
<path d="M178.934 204.878C177.516 204.48 176.138 203.954 174.815 203.307C173.442 202.779 172.116 202.136 170.851 201.383C172.265 201.792 173.643 202.317 174.97 202.955C176.343 203.482 177.67 204.126 178.934 204.878Z" fill="#EB996E"/>
<path d="M170.102 210.237C168.677 209.754 167.284 209.18 165.932 208.519C166.699 208.553 167.449 208.748 168.135 209.092C168.866 209.325 169.538 209.716 170.102 210.237Z" fill="#EB996E"/>
<path d="M177.583 205.575C176.951 205.914 176.395 206.379 175.949 206.941C175.504 207.503 175.178 208.15 174.992 208.842C174.94 208.842 174.896 208.585 174.992 208.174C175.095 207.636 175.327 207.13 175.667 206.7C176.007 206.269 176.445 205.926 176.944 205.7C177.304 205.546 177.568 205.531 177.583 205.575Z" fill="#EB996E"/>
<path d="M181.518 199.622C181.562 199.724 180.843 200.091 180.358 200.914C180.111 201.435 179.905 201.975 179.741 202.529C179.637 202.226 179.61 201.902 179.661 201.585C179.712 201.269 179.841 200.97 180.035 200.715C180.593 199.776 181.503 199.519 181.518 199.622Z" fill="#EB996E"/>
<path d="M180.41 188.837C180.373 188.837 180.226 188.668 180.116 188.316C179.984 187.835 179.984 187.328 180.116 186.847C180.244 186.373 180.498 185.942 180.85 185.599C181.114 185.342 181.335 185.254 181.357 185.291C181.007 185.804 180.723 186.359 180.512 186.943C180.403 187.568 180.369 188.204 180.41 188.837Z" fill="#EB996E"/>
<path d="M259.778 192.214C259.778 192.214 259.286 182.582 249.302 180.585C239.317 178.588 221.83 187.075 221.83 187.075L172.833 221.22L174.301 225.442L224.032 218.511L228.584 220.258L263.515 197.309L296.478 173.479L292.807 170.608C292.807 170.608 283.572 176.973 277.464 179.711C271.356 182.45 262.524 187.251 259.778 192.214Z" fill="#F5F5F5"/>
<path d="M172.077 226.836L213.542 201.075L257.377 194.035C257.377 194.035 259.58 197.221 263.302 196.443L299.349 171.482L300.031 172.987L230.126 222.101C229.099 222.476 227.99 222.564 226.917 222.354C225.845 222.144 224.85 221.646 224.04 220.912L172.077 226.836Z" fill="#455A64"/>
<path d="M257.377 194.035C257.278 194.143 257.164 194.236 257.04 194.314L256.027 195.048C255.146 195.679 253.876 196.597 252.356 197.757C249.243 200.069 245.014 203.366 240.448 207.103C235.882 210.839 231.778 214.312 228.841 216.845L225.339 219.855L224.385 220.662C224.282 220.765 224.166 220.854 224.04 220.927C224.04 220.927 224.128 220.809 224.333 220.611L225.236 219.745C226.029 219.01 227.182 217.939 228.636 216.654C231.528 214.07 235.588 210.575 240.176 206.824C244.765 203.072 248.986 199.812 252.165 197.551C253.736 196.413 255.035 195.532 255.946 194.938L256.996 194.262C257.116 194.175 257.243 194.099 257.377 194.035Z" fill="#263238"/>
<path d="M256.93 188.675C252.958 184.41 246.703 182.89 240.889 183.345C235.074 183.801 229.561 185.966 224.136 188.117L173.413 222.835L173.869 224.142L224.862 189.637C224.862 189.637 236.256 185.966 241.3 185.335C249.728 184.285 256.93 188.675 256.93 188.675Z" fill="#E0E0E0"/>
<path d="M264.888 193.242L289.276 176.79C289.276 176.79 269.293 187.185 264.888 193.242Z" fill="#E0E0E0"/>
<path d="M173.413 222.835C173.476 222.772 173.545 222.715 173.619 222.666L174.25 222.219L176.68 220.508L185.666 214.282L215.399 193.866L224.033 187.993C228.945 185.776 234.129 184.218 239.45 183.36C243.748 182.753 248.13 183.372 252.092 185.144C253.574 185.833 254.939 186.75 256.137 187.861C257.033 188.696 257.796 189.664 258.398 190.731C258.777 191.4 259.073 192.112 259.279 192.853C259.331 193.095 259.375 193.286 259.411 193.433C259.428 193.498 259.44 193.564 259.448 193.631C259.184 192.641 258.794 191.688 258.288 190.797C257.671 189.758 256.904 188.815 256.012 188C254.81 186.924 253.454 186.033 251.989 185.357C248.065 183.651 243.744 183.072 239.509 183.683C234.231 184.548 229.088 186.095 224.209 188.286H224.246L215.612 194.159L185.857 214.503L176.798 220.633L174.331 222.277L173.678 222.703C173.594 222.756 173.506 222.801 173.413 222.835Z" fill="#263238"/>
<path d="M217.814 196.59C217.93 196.494 218.059 196.415 218.196 196.355C218.453 196.215 218.835 196.002 219.327 195.753C220.318 195.239 221.764 194.519 223.585 193.697C228.306 191.484 233.316 189.949 238.466 189.138C243.643 188.356 248.933 188.84 253.883 190.547C255.371 191.084 256.8 191.77 258.149 192.596C258.633 192.875 258.978 193.146 259.22 193.33C259.349 193.409 259.469 193.5 259.58 193.602C259.58 193.602 259.044 193.293 258.075 192.743C256.709 191.976 255.277 191.334 253.795 190.826C248.868 189.21 243.631 188.77 238.503 189.542C233.389 190.35 228.405 191.831 223.68 193.947C221.852 194.739 220.391 195.415 219.378 195.892L218.218 196.428C218.089 196.495 217.954 196.549 217.814 196.59Z" fill="#263238"/>
<path d="M295.172 172.443C295.172 172.443 295.069 172.539 294.856 172.686L293.909 173.317L290.393 175.578C287.412 177.487 283.308 180.123 278.808 183.089C274.307 186.055 270.284 188.778 267.348 190.76L263.875 193.095L262.921 193.719C262.814 193.797 262.698 193.861 262.576 193.91C262.667 193.814 262.768 193.728 262.877 193.653L263.794 192.97C264.587 192.383 265.747 191.553 267.193 190.533C270.086 188.499 274.109 185.731 278.617 182.766C283.124 179.8 287.258 177.201 290.268 175.351C291.773 174.426 292.999 173.691 293.85 173.192L294.841 172.62C294.946 172.551 295.056 172.492 295.172 172.443Z" fill="#263238"/>
<path d="M272.986 198.843C272.488 200.042 271.855 201.18 271.099 202.235C270.159 203.351 267.091 204.907 266.848 207.029C266.606 209.151 267.105 214.128 263.787 217.916C261.648 220.273 258.941 222.042 255.924 223.056L242.834 221.778L221.926 213.548C221.459 213.43 221.056 213.133 220.806 212.721C220.556 212.309 220.479 211.815 220.59 211.346C220.719 210.836 220.998 210.376 221.39 210.026C221.783 209.675 222.271 209.45 222.792 209.378L223.291 209.298C223.291 209.298 222.087 208.314 223.813 206.589C225.281 205.12 228.416 205.95 230.031 206.486C231.646 207.022 241.116 210.979 242.812 211.588C244.317 212.124 245.477 212.601 245.477 212.601C245.477 212.601 233.357 204.423 233.188 203.351C232.989 202.066 233.122 201.479 234.362 200.583C235.831 199.519 238.239 200.657 240.573 201.64C242.313 202.375 253.406 207.851 253.406 207.851C253.406 207.851 253.905 207.367 253.406 206.383C252.907 205.399 249.221 200.657 248.641 199.776C248.062 198.895 247.907 198.396 248.487 197.654C249.295 196.604 251.424 196.105 253.384 197.896C254.625 199.042 259.037 202.008 259.037 202.008L279.402 187.148C279.402 187.148 281.935 187.082 281.054 190.614C280.173 194.145 272.986 198.843 272.986 198.843Z" fill="#FFBE9D"/>
<path d="M257.803 211.228C256.988 211.047 256.229 210.673 255.59 210.136C254.951 209.599 254.451 208.916 254.132 208.145C254.228 208.086 254.822 208.997 255.836 209.841C256.849 210.685 257.854 211.118 257.803 211.228Z" fill="#EB996E"/>
<path d="M259.477 202.367C259.477 202.323 259.749 202.242 260.211 202.301C260.788 202.385 261.331 202.626 261.78 202.997C262.23 203.369 262.568 203.857 262.759 204.408C262.898 204.834 262.876 205.142 262.825 205.142C262.517 204.457 262.078 203.838 261.533 203.322C260.916 202.873 260.218 202.549 259.477 202.367Z" fill="#EB996E"/>
<path d="M260.439 206.456C260.329 206.456 260.277 205.363 259.844 204.115C259.411 202.866 258.802 201.949 258.89 201.912C259.535 202.462 259.994 203.198 260.204 204.019C260.532 204.788 260.614 205.639 260.439 206.456Z" fill="#EB996E"/>
<path d="M272.486 197.786C272.486 197.823 272.229 197.676 271.965 197.324C271.63 196.856 271.42 196.31 271.356 195.738C271.292 195.166 271.375 194.587 271.598 194.057C271.774 193.66 271.972 193.462 272.009 193.491C271.747 194.195 271.654 194.95 271.737 195.696C271.82 196.441 272.077 197.157 272.486 197.786Z" fill="#EB996E"/>
<path d="M254.081 216.353C253.61 216.461 253.121 216.461 252.65 216.353C251.509 216.151 250.414 215.743 249.42 215.149C248.429 214.567 247.498 213.891 246.637 213.13C246.254 212.849 245.915 212.512 245.631 212.131C246.054 212.344 246.448 212.607 246.806 212.917C247.701 213.608 248.637 214.243 249.61 214.818C250.574 215.389 251.615 215.817 252.701 216.088C253.538 216.265 254.081 216.294 254.081 216.353Z" fill="#EB996E"/>
<path d="M257.487 214.253C257.59 214.253 257.598 214.987 256.981 215.597C256.364 216.206 255.615 216.177 255.63 216.074C255.645 215.971 256.21 215.824 256.709 215.34C257.209 214.855 257.377 214.238 257.487 214.253Z" fill="#EB996E"/>
<path d="M262.487 210.582C262.531 210.582 262.531 210.781 262.391 211.045C262.199 211.37 261.908 211.627 261.562 211.779C261.218 211.946 260.831 212.003 260.453 211.941C260.16 211.882 260.013 211.764 260.035 211.72C260.057 211.676 260.71 211.779 261.4 211.434C262.09 211.089 262.384 210.546 262.487 210.582Z" fill="#EB996E"/>
<path d="M244.853 218.915C244.817 219.01 239.949 216.984 233.988 214.378C228.027 211.772 223.225 209.577 223.299 209.488C223.372 209.4 228.21 211.427 234.171 214.033C240.133 216.639 244.897 218.819 244.853 218.915Z" fill="#EB996E"/>
<path d="M330.601 225.464C330.601 225.566 256.585 225.654 165.308 225.654C74.0314 225.654 0 225.566 0 225.464C0 225.361 74.0021 225.273 165.308 225.273C256.614 225.273 330.601 225.353 330.601 225.464Z" fill="#263238"/>
<path d="M9.45557 147.255L25.3866 225.464H163.663C164.395 225.464 165.097 225.173 165.615 224.655C166.133 224.137 166.424 223.435 166.424 222.703C166.425 222.34 166.354 221.98 166.216 221.645C166.077 221.309 165.874 221.004 165.618 220.747C165.361 220.489 165.057 220.285 164.721 220.146C164.386 220.007 164.026 219.935 163.663 219.935H135.824L121.053 147.174C120.916 146.495 120.55 145.884 120.015 145.444C119.48 145.004 118.809 144.762 118.117 144.759L12.4509 143.628C12 143.623 11.5538 143.72 11.1449 143.91C10.736 144.1 10.3747 144.379 10.0876 144.727C9.80044 145.074 9.59467 145.482 9.48532 145.919C9.37596 146.357 9.3658 146.813 9.45557 147.255Z" fill="#E0E0E0"/>
<path d="M9.45562 147.255L9.41157 147.02C9.38169 146.776 9.38169 146.53 9.41157 146.286C9.46372 145.818 9.62339 145.368 9.8781 144.972C10.1328 144.576 10.4757 144.244 10.8799 144.003C11.1606 143.83 11.4683 143.706 11.7902 143.635C12.1491 143.576 12.5133 143.554 12.8767 143.569H15.3655L21.5911 143.621L61.5507 143.995L89.4043 144.281L105.012 144.436L113.191 144.524L117.375 144.568C117.735 144.568 118.065 144.568 118.447 144.568C118.82 144.61 119.183 144.717 119.519 144.883C120.197 145.214 120.733 145.777 121.031 146.469C121.169 146.812 121.267 147.169 121.325 147.534L121.538 148.584C121.677 149.318 121.824 149.993 121.971 150.698C122.255 152.112 122.544 153.537 122.837 154.971C123.42 157.834 124.01 160.734 124.607 163.67C125.801 169.544 127.024 175.546 128.277 181.679C130.766 193.939 133.365 206.691 136.03 219.855L135.846 219.708H163.223C163.584 219.694 163.945 219.716 164.302 219.774C165.037 219.932 165.683 220.365 166.108 220.985C166.538 221.603 166.714 222.363 166.6 223.107C166.533 223.558 166.362 223.987 166.101 224.36C165.84 224.733 165.495 225.041 165.095 225.258C164.692 225.473 164.245 225.593 163.788 225.61H90.3073H25.3866H25.2692V225.493C20.3944 201.45 16.4594 181.899 13.6917 168.347C12.3261 161.578 11.269 156.307 10.5495 152.724C10.1971 150.933 9.92792 149.575 9.74194 148.65C9.5584 147.725 9.47764 147.255 9.47764 147.255C9.47764 147.255 9.58777 147.725 9.77865 148.635C9.96952 149.545 10.2632 150.926 10.6303 152.702C11.3644 156.285 12.4583 161.549 13.8532 168.317C16.6282 181.862 20.6293 201.406 25.5555 225.434L25.4086 225.317L90.3293 225.28H163.759C164.153 225.264 164.539 225.162 164.889 224.979C165.237 224.788 165.536 224.52 165.763 224.195C165.991 223.871 166.142 223.499 166.203 223.107C166.298 222.456 166.146 221.794 165.778 221.25C165.402 220.714 164.839 220.339 164.199 220.2C163.869 220.15 163.535 220.13 163.201 220.141H135.67V219.994C133.005 206.846 130.414 194.093 127.932 181.818C126.684 175.681 125.461 169.676 124.262 163.802L122.5 155.103C122.213 153.671 121.92 152.247 121.633 150.837C121.494 150.103 121.347 149.421 121.208 148.723L120.995 147.666C120.94 147.325 120.851 146.991 120.73 146.667C120.528 146.204 120.207 145.802 119.8 145.503C119.392 145.204 118.913 145.018 118.41 144.964C118.087 144.964 117.72 144.964 117.375 144.964L113.191 144.913L105.005 144.825L89.4043 144.641L61.5434 144.311L21.5837 143.819L15.3655 143.738L12.8767 143.702C12.5184 143.68 12.1587 143.699 11.8049 143.76C11.4894 143.825 11.1868 143.942 10.9092 144.105C10.5132 144.337 10.1751 144.655 9.92068 145.037C9.66625 145.419 9.50218 145.853 9.44094 146.308C9.41178 146.623 9.4167 146.941 9.45562 147.255Z" fill="#263238"/>
<path d="M68.6062 187.611C71.1281 187.611 73.1726 185.566 73.1726 183.044C73.1726 180.523 71.1281 178.478 68.6062 178.478C66.0842 178.478 64.0398 180.523 64.0398 183.044C64.0398 185.566 66.0842 187.611 68.6062 187.611Z" fill="white"/>
<path d="M9.58789 147.908C9.58789 147.908 9.7494 147.908 10.0651 147.908H16.8339L36.6045 148.004L101.834 148.459L111.267 148.54H113.587C113.983 148.525 114.379 148.549 114.769 148.613C115.367 148.735 115.919 149.019 116.364 149.435C116.81 149.851 117.132 150.382 117.295 150.97C117.471 151.704 117.596 152.438 117.75 153.172L121.12 170.16C123.256 180.989 125.187 190.716 126.802 198.931C128.417 207.147 129.738 213.739 130.605 218.328C131.045 220.611 131.383 222.387 131.618 223.606C131.728 224.201 131.816 224.663 131.875 224.986C131.934 225.309 131.948 225.456 131.948 225.456C131.948 225.456 131.904 225.302 131.838 224.994C131.772 224.685 131.669 224.215 131.544 223.621L130.458 218.386C129.533 213.798 128.197 207.183 126.538 199.012C124.878 190.841 122.94 181.077 120.775 170.256C119.695 164.845 118.572 159.163 117.383 153.275C117.229 152.541 117.096 151.807 116.935 151.072C116.741 150.375 116.297 149.774 115.687 149.384C115.385 149.19 115.048 149.056 114.696 148.987C114.327 148.927 113.953 148.905 113.58 148.921H111.267L101.834 148.848L36.6045 148.275L16.8339 148.055L11.46 147.908H10.0577H9.58789Z" fill="#263238"/>
</svg>
